<svg xmlns="http://www.w3.org/2000/svg" style="display:none;">
  <symbol id="icon-arrow" viewBox="0 0 12 10">
    <path d="M11.6897 1.65086C12.0896 2.03175 12.105 2.66473 11.7241 3.06466L6.72414 8.31466C6.53539 8.51284 6.27368 8.625 6 8.625C5.72632 8.625 5.4646 8.51284 5.27586 8.31466L0.275861 3.06466C-0.105025 2.66473 -0.0895863 2.03175 0.310344 1.65086C0.710275 1.26998 1.34325 1.28542 1.72414 1.68535L6 6.175L10.2759 1.68535C10.6567 1.28542 11.2897 1.26998 11.6897 1.65086Z" fill="currentColor"/>
  </symbol>

  <symbol id="icon-search" viewBox="0 0 24 24">
    <path d="M13.457 2.01172C18.1531 2.24999 21.8877 6.13339 21.8877 10.8887L21.876 11.3457C21.6379 16.0417 17.755 19.776 13 19.7764L12.542 19.7646C10.6253 19.6675 8.86966 18.9618 7.46191 17.8389L3.70703 21.5947C3.31654 21.9851 2.68346 21.9851 2.29297 21.5947C1.90248 21.2042 1.90256 20.5712 2.29297 20.1807L6.04785 16.4248C4.92524 15.0172 4.22021 13.262 4.12305 11.3457L4.11133 10.8887C4.11133 5.97985 8.09118 2 13 2L13.457 2.01172ZM13 4C9.19575 4 6.11133 7.08442 6.11133 10.8887C6.11145 12.7094 6.81875 14.3642 7.97266 15.5957C8.0359 15.6352 8.09638 15.6813 8.15137 15.7363C8.20601 15.791 8.25167 15.8512 8.29102 15.9141C9.52288 17.0685 11.1786 17.7764 13 17.7764C16.8037 17.7759 19.8874 14.6925 19.8877 10.8887C19.8877 7.08468 16.8039 4.00042 13 4Z" fill="currentColor"/>
  </symbol>

  <symbol id="icon-more" viewBox="0 0 24 24">
    <path d="M2.475 2.475C1.79845 3.15155 1.79845 4.24845 2.475 4.925L18.05 20.5H4.75C3.7835 20.5 3 21.2835 3 22.25C3 23.2165 3.7835 24 4.75 24H22.25C23.2165 24 24 23.2165 24 22.25V4.75C24 3.7835 23.2165 3 22.25 3C21.2835 3 20.5 3.7835 20.5 4.75V18.05L4.925 2.475C4.24845 1.79845 3.15155 1.79845 2.475 2.475Z" fill="currentColor"/>
  </symbol>
</svg>


